<?xml version="1.0" encoding="utf-8" ?>
<svg baseProfile="full" height="640" version="1.1" width="1030.0" xmlns="http://www.w3.org/2000/svg" xmlns:ev="http://www.w3.org/2001/xml-events" xmlns:xlink="http://www.w3.org/1999/xlink"><defs><linearGradient id="id1" x1="0" x2="0" y1="0" y2="1"><stop offset="0" stop-color="green" /><stop offset="1" stop-color="white" /></linearGradient><linearGradient id="id2" x1="0" x2="0" y1="0" y2="1"><stop offset="0" stop-color="red" /><stop offset="1" stop-color="white" /></linearGradient><linearGradient id="id3" x1="0" x2="0" y1="0" y2="1"><stop offset="0" stop-color="hotpink" /><stop offset="1" stop-color="white" /></linearGradient><linearGradient id="id4" x1="0" x2="0" y1="0" y2="1"><stop offset="0" stop-color="magenta" /><stop offset="1" stop-color="white" /></linearGradient></defs><text fill="black" font-size="16" x="10" y="25">protein-1</text><line stroke="gray" stroke-width="2" x1="11" x2="11" y1="35" y2="40" /><text fill="black" font-size="10" x="10" y="50">0</text><line stroke="gray" stroke-width="2" x1="111.0" x2="111.0" y1="35" y2="40" /><text fill="black" font-size="10" x="106.0" y="50">100</text><line stroke="gray" stroke-width="2" x1="211.0" x2="211.0" y1="35" y2="40" /><text fill="black" font-size="10" x="206.0" y="50">200</text><line stroke="gray" stroke-width="2" x1="311.0" x2="311.0" y1="35" y2="40" /><text fill="black" font-size="10" x="306.0" y="50">300</text><line stroke="gray" stroke-width="2" x1="411.0" x2="411.0" y1="35" y2="40" /><text fill="black" font-size="10" x="406.0" y="50">400</text><line stroke="gray" stroke-width="2" x1="511.0" x2="511.0" y1="35" y2="40" /><text fill="black" font-size="10" x="506.0" y="50">500</text><line stroke="gray" stroke-width="2" x1="611.0" x2="611.0" y1="35" y2="40" /><text fill="black" font-size="10" x="606.0" y="50">600</text><line stroke="gray" stroke-width="2" x1="711.0" x2="711.0" y1="35" y2="40" /><text fill="black" font-size="10" x="706.0" y="50">700</text><line stroke="gray" stroke-width="2" x1="811.0" x2="811.0" y1="35" y2="40" /><text fill="black" font-size="10" x="806.0" y="50">800</text><line stroke="gray" stroke-width="2" x1="911.0" x2="911.0" y1="35" y2="40" /><text fill="black" font-size="10" x="906.0" y="50">900</text><line stroke="gray" stroke-width="2" x1="1011.0" x2="1011.0" y1="35" y2="40" /><text fill="black" font-size="10" x="1006.0" y="50">1000</text><line stroke="black" stroke-width="3" x1="10" x2="1011.0" y1="35" y2="35" /><line fill="gray" opacity="1.0" stroke="gray" stroke-width="3" x1="11.0" x2="1010.0" y1="92.5" y2="92.5" /><rect fill="url(#id1) currentColor" height="25px" stroke="black" stroke-width="1" width="451.0px" x="60.0" y="80.0" /><text fill="black" font-size="14" x="270.5" y="97">NBS</text><rect fill="url(#id1) currentColor" height="25px" stroke="black" stroke-width="1" width="40px" x="925.0" y="145" /><text fill="black" font-size="12" x="975.0" y="161.5">NBS</text><rect fill="url(#id2) currentColor" height="25px" stroke="black" stroke-width="1" width="201.0px" x="710.0" y="80.0" /><text fill="black" font-size="14" x="795.5" y="97">LRR</text><rect fill="url(#id2) currentColor" height="25px" stroke="black" stroke-width="1" width="40px" x="925.0" y="180" /><text fill="black" font-size="12" x="975.0" y="196.5">LRR</text><g fill="none" stroke="gray" stroke-width="2"><polyline points="920.0,140 1006.0,140 1006.0,210 920.0,210 920.0,140" /></g><rect fill="orange" height="40px" stroke="orange" stroke-width="1" width="11.0px" x="40.0" y="72.5" /><text fill="red" font-size="10" x="30.5" y="65">motif1</text><rect fill="blue" height="40px" stroke="blue" stroke-width="1" width="4.0px" x="610.0" y="72.5" /><text fill="red" font-size="10" x="594.5" y="65">marker1</text><text fill="black" font-size="16" x="10" y="260.0">protein-2</text><line stroke="gray" stroke-width="2" x1="11" x2="11" y1="270.0" y2="275.0" /><text fill="black" font-size="10" x="10" y="285.0">0</text><line stroke="gray" stroke-width="2" x1="111.0" x2="111.0" y1="270.0" y2="275.0" /><text fill="black" font-size="10" x="106.0" y="285.0">100</text><line stroke="gray" stroke-width="2" x1="211.0" x2="211.0" y1="270.0" y2="275.0" /><text fill="black" font-size="10" x="206.0" y="285.0">200</text><line stroke="gray" stroke-width="2" x1="311.0" x2="311.0" y1="270.0" y2="275.0" /><text fill="black" font-size="10" x="306.0" y="285.0">300</text><line stroke="gray" stroke-width="2" x1="411.0" x2="411.0" y1="270.0" y2="275.0" /><text fill="black" font-size="10" x="406.0" y="285.0">400</text><line stroke="gray" stroke-width="2" x1="511.0" x2="511.0" y1="270.0" y2="275.0" /><text fill="black" font-size="10" x="506.0" y="285.0">500</text><line stroke="gray" stroke-width="2" x1="611.0" x2="611.0" y1="270.0" y2="275.0" /><text fill="black" font-size="10" x="606.0" y="285.0">600</text><line stroke="gray" stroke-width="2" x1="711.0" x2="711.0" y1="270.0" y2="275.0" /><text fill="black" font-size="10" x="706.0" y="285.0">700</text><line stroke="gray" stroke-width="2" x1="811.0" x2="811.0" y1="270.0" y2="275.0" /><text fill="black" font-size="10" x="806.0" y="285.0">800</text><line stroke="black" stroke-width="3" x1="10" x2="811.0" y1="270.0" y2="270.0" /><line fill="gray" opacity="1.0" stroke="gray" stroke-width="3" x1="11.0" x2="810.0" y1="327.5" y2="327.5" /><rect fill="url(#id3) currentColor" height="25px" stroke="black" stroke-width="1" width="81.0px" x="30.0" y="315.0" /><text fill="black" font-size="14" x="55.5" y="332.0">PPR</text><rect fill="url(#id3) currentColor" height="25px" stroke="black" stroke-width="1" width="40px" x="725.0" y="380.0" /><text fill="black" font-size="12" x="775.0" y="396.5">PPR</text><rect fill="url(#id4) currentColor" height="25px" stroke="black" stroke-width="1" width="201.0px" x="310.0" y="315.0" /><text fill="black" font-size="14" x="400.5" y="332.0">TF</text><rect fill="url(#id4) currentColor" height="25px" stroke="black" stroke-width="1" width="40px" x="725.0" y="415.0" /><text fill="black" font-size="12" x="775.0" y="431.5">TF</text><g fill="none" stroke="gray" stroke-width="2"><polyline points="720.0,375.0 806.0,375.0 806.0,445.0 720.0,445.0 720.0,375.0" /></g><rect fill="darkorange" height="40px" stroke="darkorange" stroke-width="1" width="51.0px" x="610.0" y="307.5" /><text fill="red" font-size="10" x="620.5" y="300.0">motif2</text><rect fill="royalblue" height="40px" stroke="royalblue" stroke-width="1" width="6.0px" x="790.0" y="307.5" /><text fill="red" font-size="10" x="775.5" y="300.0">marker2</text></svg>