<?xml version="1.0" encoding="utf-8" ?>
<svg baseProfile="full" height="640" version="1.1" width="732.5" xmlns="http://www.w3.org/2000/svg" xmlns:ev="http://www.w3.org/2001/xml-events" xmlns:xlink="http://www.w3.org/1999/xlink"><defs><linearGradient id="id1" x1="0" x2="0" y1="0" y2="1"><stop offset="0" stop-color="hotpink" /><stop offset="1" stop-color="white" /><stop offset="0" stop-color="hotpink" /><stop offset="1" stop-color="white" /><stop offset="0" stop-color="hotpink" /><stop offset="1" stop-color="white" /><stop offset="0" stop-color="hotpink" /><stop offset="1" stop-color="white" /></linearGradient><linearGradient id="id2" x1="0" x2="0" y1="0" y2="1"><stop offset="0" stop-color="green" /><stop offset="1" stop-color="white" /><stop offset="0" stop-color="green" /><stop offset="1" stop-color="white" /></linearGradient><linearGradient x1="0" x2="0" y1="0" y2="1" /><linearGradient x1="0" x2="0" y1="0" y2="1"><stop offset="0" stop-color="orange" /><stop offset="1" stop-color="white" /><stop offset="0" stop-color="orange" /><stop offset="1" stop-color="white" /></linearGradient><linearGradient id="id3" x1="0" x2="0" y1="0" y2="1"><stop offset="0" stop-color="royalblue" /><stop offset="1" stop-color="white" /></linearGradient><linearGradient id="id4" x1="0" x2="0" y1="0" y2="1"><stop offset="0" stop-color="deeppink" /><stop offset="1" stop-color="white" /></linearGradient></defs><text fill="black" font-size="16" x="10" y="25">AT1G01010.1</text><polygon fill="gray" points="10,59.5 50,59.5 50,54.5 60,62 50,69.5 50,64.5 10,64.5" stroke="none" /><line stroke="gray" stroke-width="2" x1="10" x2="10" y1="35" y2="40" /><text fill="black" font-size="10" x="4" y="50">0k</text><line stroke="gray" stroke-width="1.5" x1="135.0" x2="135.0" y1="35" y2="40" /><text fill="black" font-size="10" x="129.0" y="50">0.5k</text><line stroke="gray" stroke-width="2" x1="260" x2="260" y1="35" y2="40" /><text fill="black" font-size="10" x="254" y="50">1k</text><line stroke="gray" stroke-width="1.5" x1="385.0" x2="385.0" y1="35" y2="40" /><text fill="black" font-size="10" x="379.0" y="50">1.5k</text><line stroke="gray" stroke-width="2" x1="510" x2="510" y1="35" y2="40" /><text fill="black" font-size="10" x="504" y="50">2k</text><line stroke="black" stroke-width="3" x1="9.0" x2="577.0" y1="35" y2="35" /><rect fill="url(#id1) currentColor" height="12px" stroke="black" stroke-width="0.5" width="40px" x="467.25" y="146.5" /><text fill="black" font-size="12" x="517.25" y="157">utr</text><line stroke="darkgrey" stroke-width="3" x1="80.5" x2="101.25" y1="92.5" y2="92.5" /><line stroke="darkgrey" stroke-width="3" x1="171.25" x2="223.75" y1="92.5" y2="92.5" /><line stroke="darkgrey" stroke-width="3" x1="253.5" x2="278.75" y1="92.5" y2="92.5" /><line stroke="darkgrey" stroke-width="3" x1="376.0" x2="395.75" y1="92.5" y2="92.5" /><line stroke="darkgrey" stroke-width="3" x1="433.75" x2="462.0" y1="92.5" y2="92.5" /><line stroke="darkgrey" stroke-width="3" x1="467.25" x2="507.25" y1="178" y2="178" /><text fill="black" font-size="12" x="517.25" y="182">intron</text><rect fill="url(#id1) currentColor" height="12px" stroke="black" stroke-width="0.5" width="32.25px" x="10.0" y="86.5" /><rect fill="url(#id1) currentColor" height="12px" stroke="black" stroke-width="0.5" width="67.25px" x="510.0" y="86.5" /><rect fill="url(#id2) currentColor" height="25px" opacity="1.0" stroke="black" stroke-width="1" width="38.5px" x="42.25" y="80" /><rect fill="url(#id2) currentColor" height="25px" opacity="1.0" stroke="black" stroke-width="1" width="70.25px" x="101.25" y="80" /><rect fill="url(#id2) currentColor" height="25px" opacity="1.0" stroke="black" stroke-width="1" width="30.0px" x="223.75" y="80" /><rect fill="url(#id2) currentColor" height="25px" opacity="1.0" stroke="black" stroke-width="1" width="97.5px" x="278.75" y="80" /><rect fill="url(#id2) currentColor" height="25px" opacity="1.0" stroke="black" stroke-width="1" width="38.25px" x="395.75" y="80" /><rect fill="url(#id2) currentColor" height="25px" opacity="1.0" stroke="black" stroke-width="1" width="48.0px" x="462.0" y="80" /><rect fill="url(#id2) currentColor" height="25px" stroke="black" stroke-width="1" width="40px" x="467.25" y="195" /><text fill="black" font-size="12" x="517.25" y="211">CDS</text><rect fill="url(#id3) currentColor" height="25px" stroke="black" stroke-width="1" width="16.75px" x="64.0" y="80" /><rect fill="url(#id3) currentColor" height="25px" stroke="black" stroke-width="1" width="40px" x="467.25" y="230" /><text fill="black" font-size="12" x="517.25" y="246.5">CC</text><rect fill="url(#id3) currentColor" height="25px" stroke="black" stroke-width="1" width="21.5px" x="101.25" y="80" /><rect fill="url(#id4) currentColor" height="25px" stroke="black" stroke-width="1" width="87.0px" x="289.25" y="80" /><rect fill="url(#id4) currentColor" height="25px" stroke="black" stroke-width="1" width="40px" x="467.25" y="265" /><text fill="black" font-size="12" x="517.25" y="281.5">NB_ARC</text><rect fill="url(#id4) currentColor" height="25px" stroke="black" stroke-width="1" width="18.75px" x="395.75" y="80" /><g fill="none" stroke="gray" stroke-width="2"><polyline points="462.25,140 569.25,140 569.25,295 462.25,295 462.25,140" /></g><rect fill="red" height="40px" stroke="red" stroke-width="1" width="7.75px" x="485.0" y="72.5" /><text fill="red" font-size="10" x="478.625" y="65">AbC</text><rect fill="red" height="40px" stroke="red" stroke-width="1" width="2px" x="112.75" y="72.5" /><text fill="red" font-size="10" x="100.0" y="65">AbCd</text><text fill="black" font-size="16" x="10" y="345.0">AT1G01020.1</text><polygon fill="gray" points="22,380.0 62,380.0 62,385.0 22,385.0 22,390.0 12,382.5 22,375.0" stroke="none" /><line stroke="gray" stroke-width="2" x1="10" x2="10" y1="355.0" y2="360.0" /><text fill="black" font-size="10" x="4" y="370.0">0k</text><line stroke="gray" stroke-width="1.5" x1="135.0" x2="135.0" y1="355.0" y2="360.0" /><text fill="black" font-size="10" x="129.0" y="370.0">0.5k</text><line stroke="gray" stroke-width="2" x1="260" x2="260" y1="355.0" y2="360.0" /><text fill="black" font-size="10" x="254" y="370.0">1k</text><line stroke="gray" stroke-width="1.5" x1="385.0" x2="385.0" y1="355.0" y2="360.0" /><text fill="black" font-size="10" x="379.0" y="370.0">1.5k</text><line stroke="gray" stroke-width="2" x1="510" x2="510" y1="355.0" y2="360.0" /><text fill="black" font-size="10" x="504" y="370.0">2k</text><line stroke="gray" stroke-width="1.5" x1="635.0" x2="635.0" y1="355.0" y2="360.0" /><text fill="black" font-size="10" x="629.0" y="370.0">2.5k</text><line stroke="black" stroke-width="3" x1="9.0" x2="712.25" y1="355.0" y2="355.0" /><rect fill="url(#id1) currentColor" height="12px" stroke="black" stroke-width="0.5" width="40px" x="602.5" y="466.5" /><text fill="black" font-size="12" x="652.5" y="477.0">utr</text><line stroke="darkgrey" stroke-width="3" x1="93.75" x2="137.25" y1="412.5" y2="412.5" /><line stroke="darkgrey" stroke-width="3" x1="295.25" x2="317.25" y1="412.5" y2="412.5" /><line stroke="darkgrey" stroke-width="3" x1="336.0" x2="374.0" y1="412.5" y2="412.5" /><line stroke="darkgrey" stroke-width="3" x1="390.5" x2="419.0" y1="412.5" y2="412.5" /><line stroke="darkgrey" stroke-width="3" x1="440.25" x2="468.5" y1="412.5" y2="412.5" /><line stroke="darkgrey" stroke-width="3" x1="486.75" x2="513.5" y1="412.5" y2="412.5" /><line stroke="darkgrey" stroke-width="3" x1="524.75" x2="587.0" y1="412.5" y2="412.5" /><line stroke="darkgrey" stroke-width="3" x1="609.25" x2="632.25" y1="412.5" y2="412.5" /><line stroke="darkgrey" stroke-width="3" x1="644.0" x2="670.75" y1="412.5" y2="412.5" /><line stroke="darkgrey" stroke-width="3" x1="602.5" x2="642.5" y1="498.0" y2="498.0" /><text fill="black" font-size="12" x="652.5" y="502.0">intron</text><rect fill="url(#id1) currentColor" height="12px" stroke="black" stroke-width="0.5" width="17.75px" x="694.75" y="406.5" /><rect fill="url(#id1) currentColor" height="12px" stroke="black" stroke-width="0.5" width="119.5px" x="137.25" y="406.5" /><rect fill="url(#id1) currentColor" height="12px" stroke="black" stroke-width="0.5" width="84.0px" x="10.0" y="406.5" /><rect fill="url(#id2) currentColor" height="25px" opacity="1.0" stroke="black" stroke-width="1" width="24.0px" x="670.75" y="400.0" /><rect fill="url(#id2) currentColor" height="25px" opacity="1.0" stroke="black" stroke-width="1" width="12.0px" x="632.25" y="400.0" /><rect fill="url(#id2) currentColor" height="25px" opacity="1.0" stroke="black" stroke-width="1" width="22.5px" x="587.0" y="400.0" /><rect fill="url(#id2) currentColor" height="25px" opacity="1.0" stroke="black" stroke-width="1" width="11.5px" x="513.5" y="400.0" /><rect fill="url(#id2) currentColor" height="25px" opacity="1.0" stroke="black" stroke-width="1" width="18.5px" x="468.5" y="400.0" /><rect fill="url(#id2) currentColor" height="25px" opacity="1.0" stroke="black" stroke-width="1" width="21.5px" x="419.0" y="400.0" /><rect fill="url(#id2) currentColor" height="25px" opacity="1.0" stroke="black" stroke-width="1" width="16.75px" x="374.0" y="400.0" /><rect fill="url(#id2) currentColor" height="25px" opacity="1.0" stroke="black" stroke-width="1" width="19.0px" x="317.25" y="400.0" /><rect fill="url(#id2) currentColor" height="25px" opacity="1.0" stroke="black" stroke-width="1" width="38.75px" x="256.75" y="400.0" /><rect fill="url(#id2) currentColor" height="25px" stroke="black" stroke-width="1" width="40px" x="602.5" y="515.0" /><text fill="black" font-size="12" x="652.5" y="531.0">CDS</text><g fill="none" stroke="gray" stroke-width="2"><polyline points="597.5,460.0 704.5,460.0 704.5,545.0 597.5,545.0 597.5,460.0" /></g></svg>