<?xml version="1.0" encoding="utf-8" ?>
<svg baseProfile="full" height="320" version="1.1" width="597.25" xmlns="http://www.w3.org/2000/svg" xmlns:ev="http://www.w3.org/2001/xml-events" xmlns:xlink="http://www.w3.org/1999/xlink"><defs><linearGradient id="id1" x1="0" x2="0" y1="0" y2="1"><stop offset="0" stop-color="hotpink" /><stop offset="1" stop-color="white" /><stop offset="0" stop-color="hotpink" /><stop offset="1" stop-color="white" /></linearGradient><linearGradient id="id2" x1="0" x2="0" y1="0" y2="1"><stop offset="0" stop-color="green" /><stop offset="1" stop-color="white" /></linearGradient><linearGradient x1="0" x2="0" y1="0" y2="1" /><linearGradient x1="0" x2="0" y1="0" y2="1"><stop offset="0" stop-color="orange" /><stop offset="1" stop-color="white" /></linearGradient><linearGradient id="id3" x1="0" x2="0" y1="0" y2="1"><stop offset="0" stop-color="royalblue" /><stop offset="1" stop-color="white" /></linearGradient><linearGradient id="id4" x1="0" x2="0" y1="0" y2="1"><stop offset="0" stop-color="deeppink" /><stop offset="1" stop-color="white" /></linearGradient></defs><text fill="black" font-size="16" x="10" y="25">AT1G01010.1</text><polygon fill="gray" points="10,59.5 50,59.5 50,54.5 60,62 50,69.5 50,64.5 10,64.5" stroke="none" /><line stroke="gray" stroke-width="2" x1="10" x2="10" y1="35" y2="40" /><text fill="black" font-size="10" x="4" y="50">0k</text><line stroke="gray" stroke-width="1.5" x1="135.0" x2="135.0" y1="35" y2="40" /><text fill="black" font-size="10" x="129.0" y="50">0.5k</text><line stroke="gray" stroke-width="2" x1="260" x2="260" y1="35" y2="40" /><text fill="black" font-size="10" x="254" y="50">1k</text><line stroke="gray" stroke-width="1.5" x1="385.0" x2="385.0" y1="35" y2="40" /><text fill="black" font-size="10" x="379.0" y="50">1.5k</text><line stroke="gray" stroke-width="2" x1="510" x2="510" y1="35" y2="40" /><text fill="black" font-size="10" x="504" y="50">2k</text><line stroke="black" stroke-width="3" x1="9.0" x2="577.0" y1="35" y2="35" /><rect fill="url(#id1) currentColor" height="12.5px" stroke="black" stroke-width="0.5" width="40px" x="467.25" y="146.5" /><text fill="black" font-size="12" x="517.25" y="156.25">utr</text><line stroke="darkgrey" stroke-width="3" x1="80.5" x2="101.25" y1="92.5" y2="92.5" /><line stroke="darkgrey" stroke-width="3" x1="171.25" x2="223.75" y1="92.5" y2="92.5" /><line stroke="darkgrey" stroke-width="3" x1="253.5" x2="278.75" y1="92.5" y2="92.5" /><line stroke="darkgrey" stroke-width="3" x1="376.0" x2="395.75" y1="92.5" y2="92.5" /><line stroke="darkgrey" stroke-width="3" x1="433.75" x2="462.0" y1="92.5" y2="92.5" /><line stroke="darkgrey" stroke-width="3" x1="467.25" x2="507.25" y1="178" y2="178" /><text fill="black" font-size="12" x="517.25" y="182">intron</text><rect fill="url(#id1) currentColor" height="12.5px" stroke="black" stroke-width="0.5" width="32.25px" x="10.0" y="86.25" /><rect fill="url(#id1) currentColor" height="12.5px" stroke="black" stroke-width="0.5" width="67.25px" x="510.0" y="86.25" /><rect fill="url(#id2) currentColor" height="25px" opacity="1.0" stroke="black" stroke-width="1" width="38.5px" x="42.25" y="80.0" /><rect fill="url(#id2) currentColor" height="25px" opacity="1.0" stroke="black" stroke-width="1" width="70.25px" x="101.25" y="80.0" /><rect fill="url(#id2) currentColor" height="25px" opacity="1.0" stroke="black" stroke-width="1" width="30.0px" x="223.75" y="80.0" /><rect fill="url(#id2) currentColor" height="25px" opacity="1.0" stroke="black" stroke-width="1" width="97.5px" x="278.75" y="80.0" /><rect fill="url(#id2) currentColor" height="25px" opacity="1.0" stroke="black" stroke-width="1" width="38.25px" x="395.75" y="80.0" /><rect fill="url(#id2) currentColor" height="25px" opacity="1.0" stroke="black" stroke-width="1" width="48.0px" x="462.0" y="80.0" /><rect fill="url(#id2) currentColor" height="25px" stroke="black" stroke-width="1" width="40px" x="467.25" y="195" /><text fill="black" font-size="12" x="517.25" y="212.0">CDS</text><rect fill="url(#id3) currentColor" height="25px" stroke="black" stroke-width="1" width="16.75px" x="64.0" y="80.0" /><rect fill="url(#id3) currentColor" height="25px" stroke="black" stroke-width="1" width="40px" x="467.25" y="230" /><text fill="black" font-size="12" x="517.25" y="246.5">CC</text><rect fill="url(#id3) currentColor" height="25px" stroke="black" stroke-width="1" width="21.5px" x="101.25" y="80.0" /><rect fill="url(#id4) currentColor" height="25px" stroke="black" stroke-width="1" width="87.0px" x="289.25" y="80.0" /><rect fill="url(#id4) currentColor" height="25px" stroke="black" stroke-width="1" width="40px" x="467.25" y="265" /><text fill="black" font-size="12" x="517.25" y="281.5">NB_ARC</text><rect fill="url(#id4) currentColor" height="25px" stroke="black" stroke-width="1" width="18.75px" x="395.75" y="80.0" /><g fill="none" stroke="gray" stroke-width="2"><polyline points="462.25,140 569.25,140 569.25,295 462.25,295 462.25,140" /></g><rect fill="red" height="45.0px" stroke="red" stroke-width="1" width="7.75px" x="485.0" y="70.0" /><text fill="red" font-size="10" x="478.625" y="65.5">AbC</text><rect fill="red" height="45.0px" stroke="red" stroke-width="1" width="2px" x="112.75" y="70.0" /><text fill="red" font-size="10" x="100.0" y="65.5">AbCd</text></svg>