<?xml version="1.0" encoding="utf-8" ?>
<svg baseProfile="full" height="700.0" version="1.1" width="1225.0" xmlns="http://www.w3.org/2000/svg" xmlns:ev="http://www.w3.org/2001/xml-events" xmlns:xlink="http://www.w3.org/1999/xlink"><defs><linearGradient id="id1" x1="0" x2="0" y1="0" y2="1"><stop offset="0" stop-color="green" /><stop offset="1" stop-color="white" /></linearGradient><linearGradient id="id2" x1="0" x2="0" y1="0" y2="1"><stop offset="0" stop-color="red" /><stop offset="1" stop-color="white" /></linearGradient><linearGradient id="id3" x1="0" x2="0" y1="0" y2="1"><stop offset="0" stop-color="green" /><stop offset="1" stop-color="white" /></linearGradient><linearGradient id="id4" x1="0" x2="0" y1="0" y2="1"><stop offset="0" stop-color="red" /><stop offset="1" stop-color="white" /></linearGradient><linearGradient id="id5" x1="0" x2="0" y1="0" y2="1"><stop offset="0" stop-color="green" /><stop offset="1" stop-color="white" /></linearGradient><linearGradient id="id6" x1="0" x2="0" y1="0" y2="1"><stop offset="0" stop-color="red" /><stop offset="1" stop-color="white" /></linearGradient><linearGradient id="id7" x1="0" x2="0" y1="0" y2="1"><stop offset="0" stop-color="green" /><stop offset="1" stop-color="white" /></linearGradient><linearGradient id="id8" x1="0" x2="0" y1="0" y2="1"><stop offset="0" stop-color="red" /><stop offset="1" stop-color="white" /></linearGradient><linearGradient id="id9" x1="0" x2="0" y1="0" y2="1"><stop offset="0" stop-color="green" /><stop offset="1" stop-color="white" /></linearGradient><linearGradient id="id10" x1="0" x2="0" y1="0" y2="1"><stop offset="0" stop-color="red" /><stop offset="1" stop-color="white" /></linearGradient><linearGradient id="id11" x1="0" x2="0" y1="0" y2="1"><stop offset="0" stop-color="green" /><stop offset="1" stop-color="white" /></linearGradient><linearGradient id="id12" x1="0" x2="0" y1="0" y2="1"><stop offset="0" stop-color="red" /><stop offset="1" stop-color="white" /></linearGradient><linearGradient id="id13" x1="0" x2="0" y1="0" y2="1"><stop offset="0" stop-color="green" /><stop offset="1" stop-color="white" /></linearGradient><linearGradient id="id14" x1="0" x2="0" y1="0" y2="1"><stop offset="0" stop-color="red" /><stop offset="1" stop-color="white" /></linearGradient><linearGradient id="id15" x1="0" x2="0" y1="0" y2="1"><stop offset="0" stop-color="green" /><stop offset="1" stop-color="white" /></linearGradient><linearGradient id="id16" x1="0" x2="0" y1="0" y2="1"><stop offset="0" stop-color="red" /><stop offset="1" stop-color="white" /></linearGradient><linearGradient id="id17" x1="0" x2="0" y1="0" y2="1"><stop offset="0" stop-color="green" /><stop offset="1" stop-color="white" /></linearGradient><linearGradient id="id18" x1="0" x2="0" y1="0" y2="1"><stop offset="0" stop-color="red" /><stop offset="1" stop-color="white" /></linearGradient><linearGradient id="id19" x1="0" x2="0" y1="0" y2="1"><stop offset="0" stop-color="green" /><stop offset="1" stop-color="white" /></linearGradient><linearGradient id="id20" x1="0" x2="0" y1="0" y2="1"><stop offset="0" stop-color="red" /><stop offset="1" stop-color="white" /></linearGradient><linearGradient id="id21" x1="0" x2="0" y1="0" y2="1"><stop offset="0" stop-color="green" /><stop offset="1" stop-color="white" /></linearGradient><linearGradient id="id22" x1="0" x2="0" y1="0" y2="1"><stop offset="0" stop-color="red" /><stop offset="1" stop-color="white" /></linearGradient><linearGradient id="id23" x1="0" x2="0" y1="0" y2="1"><stop offset="0" stop-color="green" /><stop offset="1" stop-color="white" /></linearGradient><linearGradient id="id24" x1="0" x2="0" y1="0" y2="1"><stop offset="0" stop-color="red" /><stop offset="1" stop-color="white" /></linearGradient><linearGradient id="id25" x1="0" x2="0" y1="0" y2="1"><stop offset="0" stop-color="green" /><stop offset="1" stop-color="white" /></linearGradient><linearGradient id="id26" x1="0" x2="0" y1="0" y2="1"><stop offset="0" stop-color="red" /><stop offset="1" stop-color="white" /></linearGradient><linearGradient id="id27" x1="0" x2="0" y1="0" y2="1"><stop offset="0" stop-color="green" /><stop offset="1" stop-color="white" /></linearGradient><linearGradient id="id28" x1="0" x2="0" y1="0" y2="1"><stop offset="0" stop-color="red" /><stop offset="1" stop-color="white" /></linearGradient><linearGradient id="id29" x1="0" x2="0" y1="0" y2="1"><stop offset="0" stop-color="green" /><stop offset="1" stop-color="white" /></linearGradient><linearGradient id="id30" x1="0" x2="0" y1="0" y2="1"><stop offset="0" stop-color="red" /><stop offset="1" stop-color="white" /></linearGradient><linearGradient id="id31" x1="0" x2="0" y1="0" y2="1"><stop offset="0" stop-color="green" /><stop offset="1" stop-color="white" /></linearGradient><linearGradient id="id32" x1="0" x2="0" y1="0" y2="1"><stop offset="0" stop-color="red" /><stop offset="1" stop-color="white" /></linearGradient><linearGradient id="id33" x1="0" x2="0" y1="0" y2="1"><stop offset="0" stop-color="green" /><stop offset="1" stop-color="white" /></linearGradient><linearGradient id="id34" x1="0" x2="0" y1="0" y2="1"><stop offset="0" stop-color="red" /><stop offset="1" stop-color="white" /></linearGradient><linearGradient id="id35" x1="0" x2="0" y1="0" y2="1"><stop offset="0" stop-color="green" /><stop offset="1" stop-color="white" /></linearGradient><linearGradient id="id36" x1="0" x2="0" y1="0" y2="1"><stop offset="0" stop-color="red" /><stop offset="1" stop-color="white" /></linearGradient><linearGradient id="id37" x1="0" x2="0" y1="0" y2="1"><stop offset="0" stop-color="green" /><stop offset="1" stop-color="white" /></linearGradient><linearGradient id="id38" x1="0" x2="0" y1="0" y2="1"><stop offset="0" stop-color="red" /><stop offset="1" stop-color="white" /></linearGradient><linearGradient id="id39" x1="0" x2="0" y1="0" y2="1"><stop offset="0" stop-color="green" /><stop offset="1" stop-color="white" /></linearGradient><linearGradient id="id40" x1="0" x2="0" y1="0" y2="1"><stop offset="0" stop-color="red" /><stop offset="1" stop-color="white" /></linearGradient><linearGradient id="id41" x1="0" x2="0" y1="0" y2="1"><stop offset="0" stop-color="green" /><stop offset="1" stop-color="white" /></linearGradient><linearGradient id="id42" x1="0" x2="0" y1="0" y2="1"><stop offset="0" stop-color="red" /><stop offset="1" stop-color="white" /></linearGradient><linearGradient id="id43" x1="0" x2="0" y1="0" y2="1"><stop offset="0" stop-color="green" /><stop offset="1" stop-color="white" /></linearGradient><linearGradient id="id44" x1="0" x2="0" y1="0" y2="1"><stop offset="0" stop-color="red" /><stop offset="1" stop-color="white" /></linearGradient><linearGradient id="id45" x1="0" x2="0" y1="0" y2="1"><stop offset="0" stop-color="green" /><stop offset="1" stop-color="white" /></linearGradient><linearGradient id="id46" x1="0" x2="0" y1="0" y2="1"><stop offset="0" stop-color="red" /><stop offset="1" stop-color="white" /></linearGradient><linearGradient id="id47" x1="0" x2="0" y1="0" y2="1"><stop offset="0" stop-color="green" /><stop offset="1" stop-color="white" /></linearGradient><linearGradient id="id48" x1="0" x2="0" y1="0" y2="1"><stop offset="0" stop-color="red" /><stop offset="1" stop-color="white" /></linearGradient></defs><line stroke="black" stroke-width="2.0" x1="174.70654672984534" x2="313.81582067660526" y1="25" y2="25" /><text fill="black" font-size="14.0" x="323.81582067660526" y="31">D7UDZ7_VITVI/24-202</text><line stroke="black" stroke-width="2.0" x1="174.70654672984534" x2="309.17319306485575" y1="50.0" y2="50.0" /><text fill="black" font-size="14.0" x="319.17319306485575" y="56.0">F6I7C7_VITVI/9-189</text><line stroke="black" stroke-width="2.0" x1="174.70654672984534" x2="174.70654672984534" y1="24.0" y2="51.0" /><text fill="black" font-size="12.0" x="158.70654672984534" y="33.5">99</text><line stroke="black" stroke-width="2.0" x1="154.89623147037503" x2="329.7698138202484" y1="100.0" y2="100.0" /><text fill="black" font-size="14.0" x="339.7698138202484" y="106.0">B9S6Z7_RICCO/19-198</text><line stroke="black" stroke-width="2.0" x1="154.89623147037503" x2="322.61176493739674" y1="125.0" y2="125.0" /><text fill="black" font-size="14.0" x="332.61176493739674" y="131.0">B9SBW2_RICCO/15-195</text><line stroke="black" stroke-width="2.0" x1="154.89623147037503" x2="154.89623147037503" y1="99.0" y2="126.0" /><text fill="black" font-size="12.0" x="138.89623147037503" y="108.5">82</text><line stroke="black" stroke-width="2.0" x1="242.4852334771512" x2="345.9525516999468" y1="275.0" y2="275.0" /><text fill="black" font-size="14.0" x="355.9525516999468" y="281.0">F4IFF6_ARATH/55-233</text><line stroke="black" stroke-width="2.0" x1="242.4852334771512" x2="352.9945868098697" y1="300.0" y2="300.0" /><text fill="black" font-size="14.0" x="362.9945868098697" y="306.0">F4J361_ARATH/93-270</text><line stroke="black" stroke-width="2.0" x1="242.4852334771512" x2="242.4852334771512" y1="274.0" y2="301.0" /><text fill="black" font-size="12.0" x="218.4852334771512" y="283.5">100</text><line stroke="black" stroke-width="2.0" x1="196.8836953084567" x2="321.0528837080951" y1="325.0" y2="325.0" /><text fill="black" font-size="14.0" x="331.0528837080951" y="331.0">D7KR54_ARALL/8-188</text><line stroke="black" stroke-width="2.0" x1="196.8836953084567" x2="332.54333467638344" y1="350.0" y2="350.0" /><text fill="black" font-size="14.0" x="342.54333467638344" y="356.0">Q9SSN5_ARATH/8-185</text><line stroke="black" stroke-width="2.0" x1="196.8836953084567" x2="196.8836953084567" y1="324.0" y2="351.0" /><text fill="black" font-size="12.0" x="172.8836953084567" y="333.5">100</text><line stroke="black" stroke-width="2.0" x1="184.051663355291" x2="513.080697994285" y1="425.0" y2="425.0" /><text fill="black" font-size="14.0" x="523.080697994285" y="431.0">TLR4_HUMAN/676-839</text><line stroke="black" stroke-width="2.0" x1="184.05166335529094" x2="519.2784071190179" y1="450.0" y2="450.0" /><text fill="black" font-size="14.0" x="529.2784071190179" y="456.0">TLR5_HUMAN/695-858</text><line stroke="black" stroke-width="2.0" x1="184.051663355291" x2="184.05166335529094" y1="424.0" y2="451.0" /><text fill="black" font-size="12.0" x="168.051663355291" y="433.5">93</text><line stroke="black" stroke-width="2.0" x1="212.04249579151949" x2="488.2836223430212" y1="475.0" y2="475.0" /><text fill="black" font-size="14.0" x="498.2836223430212" y="481.0">ILRL1_MOUSE/384-567</text><line stroke="black" stroke-width="2.0" x1="212.04249579151943" x2="525.0" y1="500.0" y2="500.0" /><text fill="black" font-size="14.0" x="535.0" y="506.0">ILRL2_HUMAN/385-575</text><line stroke="black" stroke-width="2.0" x1="212.04249579151949" x2="212.04249579151943" y1="474.0" y2="501.0" /><text fill="black" font-size="12.0" x="196.04249579151949" y="483.5">84</text><line stroke="black" stroke-width="2.0" x1="381.80212247256515" x2="523.3450648441087" y1="525.0" y2="525.0" /><text fill="black" font-size="14.0" x="533.3450648441087" y="531.0">I18RA_HUMAN/410-598</text><line stroke="black" stroke-width="2.0" x1="381.8021224725651" x2="518.5528517415079" y1="550.0" y2="550.0" /><text fill="black" font-size="14.0" x="528.5528517415079" y="556.0">I18RA_MOUSE/409-597</text><line stroke="black" stroke-width="2.0" x1="381.80212247256515" x2="381.8021224725651" y1="524.0" y2="551.0" /><text fill="black" font-size="12.0" x="357.80212247256515" y="533.5">100</text><line stroke="black" stroke-width="2.0" x1="220.2787844607744" x2="502.38656418496214" y1="575.0" y2="575.0" /><text fill="black" font-size="14.0" x="512.3865641849621" y="581.0">IL18R_HUMAN/377-541</text><line stroke="black" stroke-width="2.0" x1="220.27878446077443" x2="489.17062485564026" y1="600.0" y2="600.0" /><text fill="black" font-size="14.0" x="499.17062485564026" y="606.0">IL1AP_HUMAN/407-570</text><line stroke="black" stroke-width="2.0" x1="220.2787844607744" x2="220.27878446077443" y1="574.0" y2="601.0" /><text fill="black" font-size="12.0" x="204.2787844607744" y="583.5">50</text><line stroke="black" stroke-width="2.0" x1="127.69524125886143" x2="174.70654672984534" y1="37.5" y2="37.5" /><line stroke="black" stroke-width="2.0" x1="127.69524125886144" x2="318.8929308862435" y1="75.0" y2="75.0" /><text fill="black" font-size="14.0" x="328.8929308862435" y="81.0">B9N1N5_POPTR/14-194</text><line stroke="black" stroke-width="2.0" x1="127.69524125886143" x2="127.69524125886144" y1="36.5" y2="76.0" /><text fill="black" font-size="12.0" x="111.69524125886143" y="52.25">46</text><line stroke="black" stroke-width="2.0" x1="171.33550914702352" x2="361.0508106409105" y1="250.0" y2="250.0" /><text fill="black" font-size="14.0" x="371.0508106409105" y="256.0">Q9ZVX6_ARATH/11-188</text><line stroke="black" stroke-width="2.0" x1="171.33550914702352" x2="242.4852334771512" y1="287.5" y2="287.5" /><line stroke="black" stroke-width="2.0" x1="171.33550914702352" x2="171.33550914702352" y1="249.0" y2="288.5" /><text fill="black" font-size="12.0" x="155.33550914702352" y="264.75">61</text><line stroke="black" stroke-width="2.0" x1="210.9137805372726" x2="381.80212247256515" y1="537.5" y2="537.5" /><line stroke="black" stroke-width="2.0" x1="210.91378053727257" x2="220.2787844607744" y1="587.5" y2="587.5" /><line stroke="black" stroke-width="2.0" x1="210.9137805372726" x2="210.91378053727257" y1="536.5" y2="588.5" /><text fill="black" font-size="12.0" x="194.9137805372726" y="558.5">80</text><line stroke="black" stroke-width="2.0" x1="124.5160122675519" x2="127.69524125886143" y1="56.25" y2="56.25" /><line stroke="black" stroke-width="2.0" x1="124.51601226755187" x2="154.89623147037503" y1="112.5" y2="112.5" /><line stroke="black" stroke-width="2.0" x1="124.5160122675519" x2="124.51601226755187" y1="55.25" y2="113.5" /><text fill="black" font-size="12.0" x="108.5160122675519" y="80.375">70</text><line stroke="black" stroke-width="2.0" x1="160.84716761074654" x2="331.5152983017626" y1="225.0" y2="225.0" /><text fill="black" font-size="14.0" x="341.5152983017626" y="231.0">M4E4G7_BRARP/12-187</text><line stroke="black" stroke-width="2.0" x1="160.8471676107465" x2="171.33550914702352" y1="268.75" y2="268.75" /><line stroke="black" stroke-width="2.0" x1="160.84716761074654" x2="160.8471676107465" y1="224.0" y2="269.75" /><text fill="black" font-size="12.0" x="144.84716761074654" y="242.875">86</text><line stroke="black" stroke-width="2.0" x1="186.03027267544195" x2="212.04249579151949" y1="487.5" y2="487.5" /><line stroke="black" stroke-width="2.0" x1="186.0302726754419" x2="210.9137805372726" y1="562.5" y2="562.5" /><line stroke="black" stroke-width="2.0" x1="186.03027267544195" x2="186.0302726754419" y1="486.5" y2="563.5" /><text fill="black" font-size="12.0" x="170.03027267544195" y="521.0">98</text><line stroke="black" stroke-width="2.0" x1="102.43901659351532" x2="124.5160122675519" y1="84.375" y2="84.375" /><line stroke="black" stroke-width="2.0" x1="102.43901659351533" x2="329.30837046671854" y1="150.0" y2="150.0" /><text fill="black" font-size="14.0" x="339.30837046671854" y="156.0">I1MD01_SOYBN/13-191</text><line stroke="black" stroke-width="2.0" x1="102.43901659351532" x2="102.43901659351533" y1="83.375" y2="151.0" /><text fill="black" font-size="12.0" x="86.43901659351532" y="113.1875">44</text><line stroke="black" stroke-width="2.0" x1="138.16822069622953" x2="325.44403176562844" y1="200.0" y2="200.0" /><text fill="black" font-size="14.0" x="335.44403176562844" y="206.0">D7MRD9_ARALL/8-185</text><line stroke="black" stroke-width="2.0" x1="138.16822069622955" x2="160.84716761074654" y1="246.875" y2="246.875" /><line stroke="black" stroke-width="2.0" x1="138.16822069622953" x2="138.16822069622955" y1="199.0" y2="247.875" /><text fill="black" font-size="12.0" x="114.16822069622953" y="219.4375">100</text><line stroke="black" stroke-width="2.0" x1="144.1218139174631" x2="184.051663355291" y1="437.5" y2="437.5" /><line stroke="black" stroke-width="2.0" x1="144.1218139174631" x2="186.03027267544195" y1="525.0" y2="525.0" /><line stroke="black" stroke-width="2.0" x1="144.1218139174631" x2="144.1218139174631" y1="436.5" y2="526.0" /><text fill="black" font-size="12.0" x="120.1218139174631" y="477.25">100</text><line stroke="black" stroke-width="2.0" x1="97.07184928021674" x2="102.43901659351532" y1="117.1875" y2="117.1875" /><line stroke="black" stroke-width="2.0" x1="97.07184928021674" x2="337.2076904988683" y1="175.0" y2="175.0" /><text fill="black" font-size="14.0" x="347.2076904988683" y="181.0">B9S9D9_RICCO/12-191</text><line stroke="black" stroke-width="2.0" x1="97.07184928021674" x2="97.07184928021674" y1="116.1875" y2="176.0" /><text fill="black" font-size="12.0" x="81.07184928021674" y="142.09375">67</text><line stroke="black" stroke-width="2.0" x1="74.84977517740549" x2="97.07184928021674" y1="146.09375" y2="146.09375" /><line stroke="black" stroke-width="2.0" x1="74.84977517740548" x2="138.16822069622953" y1="223.4375" y2="223.4375" /><line stroke="black" stroke-width="2.0" x1="74.84977517740549" x2="74.84977517740548" y1="145.09375" y2="224.4375" /><text fill="black" font-size="12.0" x="58.84977517740549" y="180.765625">47</text><line stroke="black" stroke-width="2.0" x1="65.50386958938306" x2="74.84977517740549" y1="184.765625" y2="184.765625" /><line stroke="black" stroke-width="2.0" x1="65.50386958938307" x2="196.8836953084567" y1="337.5" y2="337.5" /><line stroke="black" stroke-width="2.0" x1="65.50386958938306" x2="65.50386958938307" y1="183.765625" y2="338.5" /><text fill="black" font-size="12.0" x="49.50386958938306" y="257.1328125">53</text><line stroke="black" stroke-width="2.0" x1="53.3719376349568" x2="65.50386958938306" y1="261.1328125" y2="261.1328125" /><line stroke="black" stroke-width="2.0" x1="53.371937634956836" x2="335.0606059287001" y1="375.0" y2="375.0" /><text fill="black" font-size="14.0" x="345.0606059287001" y="381.0">I1KE95_SOYBN/20-200</text><line stroke="black" stroke-width="2.0" x1="53.3719376349568" x2="53.371937634956836" y1="260.1328125" y2="376.0" /><text fill="black" font-size="12.0" x="37.3719376349568" y="314.06640625">95</text><line stroke="black" stroke-width="2.0" x1="24.999999999999986" x2="53.3719376349568" y1="318.06640625" y2="318.06640625" /><line stroke="black" stroke-width="2.0" x1="25.0" x2="325.97255507525574" y1="400.0" y2="400.0" /><text fill="black" font-size="14.0" x="335.97255507525574" y="406.0">Q9XGM3_ARATH/16-186</text><line stroke="black" stroke-width="2.0" x1="25.000000000000025" x2="144.1218139174631" y1="481.25" y2="481.25" /><line stroke="black" stroke-width="2.0" x1="25" x2="25" y1="317.06640625" y2="482.25" /><line stroke="black" stroke-width="2" x1="50" x2="140.68535365338192" y1="650.0" y2="650.0" /><line stroke="black" stroke-width="2" x1="50" x2="50" y1="642.0" y2="658.0" /><line stroke="black" stroke-width="2" x1="140.68535365338192" x2="140.68535365338192" y1="642.0" y2="658.0" /><text fill="black" font-size="14.0" x="86.34267682669096" y="665.0">0.1</text><line fill="gray" opacity="1.0" stroke="gray" stroke-width="3" x1="701.0" x2="1200.5" y1="25" y2="25" /><rect fill="url(#id1) currentColor" height="10px" stroke="black" stroke-width="1" width="229.5px" x="711.5" y="20.0" /><rect fill="url(#id2) currentColor" height="10px" stroke="black" stroke-width="1" width="125.5px" x="1000.5" y="20.0" /><line fill="gray" opacity="1.0" stroke="gray" stroke-width="3" x1="701.0" x2="1200.5" y1="50.0" y2="50.0" /><rect fill="url(#id3) currentColor" height="10px" stroke="black" stroke-width="1" width="218.0px" x="708.0" y="45.0" /><rect fill="url(#id4) currentColor" height="10px" stroke="black" stroke-width="1" width="150.5px" x="975.5" y="45.0" /><line fill="gray" opacity="1.0" stroke="gray" stroke-width="3" x1="701.0" x2="1200.5" y1="75.0" y2="75.0" /><rect fill="url(#id5) currentColor" height="10px" stroke="black" stroke-width="1" width="235.5px" x="715.5" y="70.0" /><rect fill="url(#id6) currentColor" height="10px" stroke="black" stroke-width="1" width="100.5px" x="1025.5" y="70.0" /><line fill="gray" opacity="1.0" stroke="gray" stroke-width="3" x1="701.0" x2="1200.5" y1="100.0" y2="100.0" /><rect fill="url(#id7) currentColor" height="10px" stroke="black" stroke-width="1" width="223.0px" x="718.0" y="95.0" /><rect fill="url(#id8) currentColor" height="10px" stroke="black" stroke-width="1" width="125.5px" x="1000.5" y="95.0" /><line fill="gray" opacity="1.0" stroke="gray" stroke-width="3" x1="701.0" x2="1200.5" y1="125.0" y2="125.0" /><rect fill="url(#id9) currentColor" height="10px" stroke="black" stroke-width="1" width="233.0px" x="718.0" y="120.0" /><rect fill="url(#id10) currentColor" height="10px" stroke="black" stroke-width="1" width="75.5px" x="1050.5" y="120.0" /><line fill="gray" opacity="1.0" stroke="gray" stroke-width="3" x1="701.0" x2="1200.5" y1="150.0" y2="150.0" /><rect fill="url(#id11) currentColor" height="10px" stroke="black" stroke-width="1" width="189.5px" x="711.5" y="145.0" /><rect fill="url(#id12) currentColor" height="10px" stroke="black" stroke-width="1" width="175.5px" x="950.5" y="145.0" /><line fill="gray" opacity="1.0" stroke="gray" stroke-width="3" x1="701.0" x2="1200.5" y1="175.0" y2="175.0" /><rect fill="url(#id13) currentColor" height="10px" stroke="black" stroke-width="1" width="140.5px" x="800.5" y="170.0" /><rect fill="url(#id14) currentColor" height="10px" stroke="black" stroke-width="1" width="175.5px" x="950.5" y="170.0" /><line fill="gray" opacity="1.0" stroke="gray" stroke-width="3" x1="701.0" x2="1100.5" y1="200.0" y2="200.0" /><rect fill="url(#id15) currentColor" height="10px" stroke="black" stroke-width="1" width="165.5px" x="775.5" y="195.0" /><rect fill="url(#id16) currentColor" height="10px" stroke="black" stroke-width="1" width="50.5px" x="1000.5" y="195.0" /><line fill="gray" opacity="1.0" stroke="gray" stroke-width="3" x1="701.0" x2="1100.5" y1="225.0" y2="225.0" /><rect fill="url(#id17) currentColor" height="10px" stroke="black" stroke-width="1" width="165.5px" x="775.5" y="220.0" /><rect fill="url(#id18) currentColor" height="10px" stroke="black" stroke-width="1" width="75.5px" x="1000.5" y="220.0" /><line fill="gray" opacity="1.0" stroke="gray" stroke-width="3" x1="701.0" x2="1100.5" y1="250.0" y2="250.0" /><rect fill="url(#id19) currentColor" height="10px" stroke="black" stroke-width="1" width="150.5px" x="790.5" y="245.0" /><rect fill="url(#id20) currentColor" height="10px" stroke="black" stroke-width="1" width="85.5px" x="1000.5" y="245.0" /><line fill="gray" opacity="1.0" stroke="gray" stroke-width="3" x1="701.0" x2="1100.5" y1="275.0" y2="275.0" /><rect fill="url(#id21) currentColor" height="10px" stroke="black" stroke-width="1" width="160.5px" x="780.5" y="270.0" /><rect fill="url(#id22) currentColor" height="10px" stroke="black" stroke-width="1" width="80.5px" x="1000.5" y="270.0" /><line fill="gray" opacity="1.0" stroke="gray" stroke-width="3" x1="701.0" x2="1100.5" y1="300.0" y2="300.0" /><rect fill="url(#id23) currentColor" height="10px" stroke="black" stroke-width="1" width="155.5px" x="785.5" y="295.0" /><rect fill="url(#id24) currentColor" height="10px" stroke="black" stroke-width="1" width="60.5px" x="1000.5" y="295.0" /><line fill="gray" opacity="1.0" stroke="gray" stroke-width="3" x1="701.0" x2="1100.5" y1="325.0" y2="325.0" /><rect fill="url(#id25) currentColor" height="10px" stroke="black" stroke-width="1" width="190.5px" x="750.5" y="320.0" /><rect fill="url(#id26) currentColor" height="10px" stroke="black" stroke-width="1" width="45.5px" x="1000.5" y="320.0" /><line fill="gray" opacity="1.0" stroke="gray" stroke-width="3" x1="701.0" x2="1100.5" y1="350.0" y2="350.0" /><rect fill="url(#id27) currentColor" height="10px" stroke="black" stroke-width="1" width="155.5px" x="785.5" y="345.0" /><rect fill="url(#id28) currentColor" height="10px" stroke="black" stroke-width="1" width="40.5px" x="1000.5" y="345.0" /><line fill="gray" opacity="1.0" stroke="gray" stroke-width="3" x1="701.0" x2="1100.5" y1="375.0" y2="375.0" /><rect fill="url(#id29) currentColor" height="10px" stroke="black" stroke-width="1" width="165.5px" x="775.5" y="370.0" /><rect fill="url(#id30) currentColor" height="10px" stroke="black" stroke-width="1" width="55.5px" x="1000.5" y="370.0" /><line fill="gray" opacity="1.0" stroke="gray" stroke-width="3" x1="701.0" x2="1100.5" y1="400.0" y2="400.0" /><rect fill="url(#id31) currentColor" height="10px" stroke="black" stroke-width="1" width="140.5px" x="800.5" y="395.0" /><rect fill="url(#id32) currentColor" height="10px" stroke="black" stroke-width="1" width="60.5px" x="1000.5" y="395.0" /><line fill="gray" opacity="1.0" stroke="gray" stroke-width="3" x1="701.0" x2="1150.5" y1="425.0" y2="425.0" /><rect fill="url(#id33) currentColor" height="10px" stroke="black" stroke-width="1" width="125.5px" x="775.5" y="420.0" /><rect fill="url(#id34) currentColor" height="10px" stroke="black" stroke-width="1" width="110.5px" x="950.5" y="420.0" /><line fill="gray" opacity="1.0" stroke="gray" stroke-width="3" x1="701.0" x2="1150.5" y1="450.0" y2="450.0" /><rect fill="url(#id35) currentColor" height="10px" stroke="black" stroke-width="1" width="130.5px" x="775.5" y="445.0" /><rect fill="url(#id36) currentColor" height="10px" stroke="black" stroke-width="1" width="105.5px" x="955.5" y="445.0" /><line fill="gray" opacity="1.0" stroke="gray" stroke-width="3" x1="701.0" x2="1150.5" y1="475.0" y2="475.0" /><rect fill="url(#id37) currentColor" height="10px" stroke="black" stroke-width="1" width="135.5px" x="775.5" y="470.0" /><rect fill="url(#id38) currentColor" height="10px" stroke="black" stroke-width="1" width="100.5px" x="960.5" y="470.0" /><line fill="gray" opacity="1.0" stroke="gray" stroke-width="3" x1="701.0" x2="1150.5" y1="500.0" y2="500.0" /><rect fill="url(#id39) currentColor" height="10px" stroke="black" stroke-width="1" width="140.5px" x="775.5" y="495.0" /><rect fill="url(#id40) currentColor" height="10px" stroke="black" stroke-width="1" width="95.5px" x="965.5" y="495.0" /><line fill="gray" opacity="1.0" stroke="gray" stroke-width="3" x1="701.0" x2="1150.5" y1="525.0" y2="525.0" /><rect fill="url(#id41) currentColor" height="10px" stroke="black" stroke-width="1" width="145.5px" x="775.5" y="520.0" /><rect fill="url(#id42) currentColor" height="10px" stroke="black" stroke-width="1" width="90.5px" x="970.5" y="520.0" /><line fill="gray" opacity="1.0" stroke="gray" stroke-width="3" x1="701.0" x2="1150.5" y1="550.0" y2="550.0" /><rect fill="url(#id43) currentColor" height="10px" stroke="black" stroke-width="1" width="135.5px" x="775.5" y="545.0" /><rect fill="url(#id44) currentColor" height="10px" stroke="black" stroke-width="1" width="95.5px" x="965.5" y="545.0" /><line fill="gray" opacity="1.0" stroke="gray" stroke-width="3" x1="701.0" x2="1150.5" y1="575.0" y2="575.0" /><rect fill="url(#id45) currentColor" height="10px" stroke="black" stroke-width="1" width="138.0px" x="775.5" y="570.0" /><rect fill="url(#id46) currentColor" height="10px" stroke="black" stroke-width="1" width="85.5px" x="975.5" y="570.0" /><line fill="gray" opacity="1.0" stroke="gray" stroke-width="3" x1="701.0" x2="1150.5" y1="600.0" y2="600.0" /><rect fill="url(#id47) currentColor" height="10px" stroke="black" stroke-width="1" width="143.5px" x="775.5" y="595.0" /><rect fill="url(#id48) currentColor" height="10px" stroke="black" stroke-width="1" width="60.5px" x="1000.5" y="595.0" /></svg>